<svg id="Layer_2" data-name="Layer 2" xmlns="http://www.w3.org/2000/svg" viewBox="0 0 100 100"><defs><style>.cls-1{fill:#fff;}</style></defs><title>Artboard 3</title><polygon class="cls-1" points="100 0 100 73.25 78.66 61.67 68.8 0 100 0"/><polygon class="cls-1" points="42 48.6 66.16 100 0 100 0 25.81 42 48.6"/><polygon class="cls-1" points="79.86 69.14 100 80.07 100 100 84.8 100 79.86 69.14"/><polygon class="cls-1" points="46.59 44.26 25.78 0 62.72 0 72.01 58.06 46.59 44.26"/><polygon class="cls-1" points="37.69 39.43 0 18.98 0 0 19.15 0 37.69 39.43"/><polygon class="cls-1" points="73.21 65.53 78.72 100 72.79 100 50.9 53.43 73.21 65.53"/></svg>